<svg xmlns="http://www.w3.org/2000/svg" width="100" height="100" viewBox="0 0 100 100"><g transform="translate(-364 240)"><rect width="100" height="100" transform="translate(364 -240)" fill="none"/><g transform="translate(290.92 -261.32)"><path d="M193.6,34.3h-4.728l4.917,5.34v2.539H183.66V39.2h4.917l-4.917-5.34V31.32H193.6Zm-11.953,0h-4.735l4.924,5.34v2.539H171.7V39.2h4.917L171.7,33.86V31.32h9.945V34.3Zm-11.837.121h-5.1v4.661h5.1v3.1H161.08V31.32h8.732Z" transform="translate(-53.859)" fill="#131313"/><path d="M100.268,175.471,95.08,117.29h57l-5.195,58.172-23.34,6.47Z" transform="translate(0 -70.155)" fill="#1572b6"/><path d="M250,198.09l18.861-5.23,4.435-49.71H250Z" transform="translate(-126.422 -91.258)" fill="#33a9dc"/><path d="M250,193.679h9.442l.649-7.307H250V179.24h17.9l-.171,1.915-1.755,19.665H250Z" transform="translate(-126.422 -120.71)" fill="#fff"/><path d="M180.813,323.716h-.031l-7.947-2.147-.508-5.69H165.17l1,11.2,14.619,4.069h.042v-7.435Z" transform="translate(-57.197 -232.214)" fill="#ebebeb"/><path d="M258.919,294.844l-.859,9.549-7.96,2.147v7.435l14.628-4.056.107-1.207,1.242-13.872h-7.158Z" transform="translate(-126.503 -215.044)" fill="#fff"/><path d="M170.845,179.25v7.136H153.614l-.147-1.6-.326-3.618-.171-1.915Zm-.026,14.437v7.136h-7.857l-.138-1.6L162.5,195.6l-.171-1.915h8.491Z" transform="translate(-47.241 -120.718)" fill="#ebebeb"/></g></g></svg>