<svg width="156" height="220" viewBox="0 0 156 220" fill="none" xmlns="http://www.w3.org/2000/svg">
<path d="M14.1864 202.321L0 43.241H155.887L141.685 202.296L77.8476 219.99L14.1864 202.321Z" fill="#E44D26"/>
<path d="M77.9432 206.466L129.526 192.168L141.663 56.2485H77.9432V206.466Z" fill="#F16529"/>
<path d="M77.9433 115.249H52.12L50.3362 95.27H77.9433V75.7593H29.0077L29.4753 80.9936L34.2717 134.759H77.9433V115.249ZM77.9433 165.919L77.8576 165.943L56.1234 160.075L54.7339 144.515H35.1439L37.8783 175.15L77.854 186.244L77.9433 186.219V165.919Z" fill="#EBEBEB"/>
<path d="M14.5038 0.0101318H24.421V9.80589H33.4929V0.0101318H43.4105V29.6744H33.4929V19.7412H24.421V29.6744H14.5045L14.5038 0.0101318ZM56.4528 9.84769H47.7225V0.0101318H75.1064V9.84769H66.3718V29.6744H56.4532V9.84769H56.4528ZM79.4518 0.0101318H89.7934L96.1547 10.4335L102.51 0.0101318H112.855V29.6744H102.977V14.9708L96.1536 25.5182H95.9832L89.1554 14.9708V29.6744H79.4514V0.0101318H79.4518ZM117.79 0.0101318H127.71V19.8694H141.658V29.6744H117.79V0.0101318Z" fill="black"/>
<path d="M77.876 115.249V134.759H101.907L99.6416 160.063L77.876 165.936V186.234L117.884 175.15L118.176 171.852L122.763 120.488L123.239 115.249H117.981H77.876ZM77.876 75.7593V95.27H125.015L125.406 90.8843L126.295 80.9936L126.762 75.7593H77.876Z" fill="white"/>
</svg>
