<svg xmlns="http://www.w3.org/2000/svg" width="128" height="128" viewBox="0 0 128 128"><g transform="translate(-215 -797)"><g transform="translate(220 830)"><ellipse cx="59.456" cy="30.95" rx="59.456" ry="30.95" transform="translate(0 0)" fill="#8993be"/><path d="M35.945,58.2l6.516-32.986H57.528c6.516.407,9.774,3.665,9.774,9.367,0,9.774-7.737,15.475-14.661,15.067H45.312L43.683,58.2Zm11-14.66,2.036-12.217H54.27c2.851,0,4.887,1.222,4.887,3.665-.407,6.923-3.665,8.145-7.33,8.552H46.941Zm18.848,6.108L72.3,16.658h7.738l-1.629,8.551h7.33c6.516.407,8.959,3.665,8.145,7.738l-2.851,16.7H82.891l2.851-15.067c.407-2.036.407-3.258-2.443-3.258H77.19L73.525,49.643ZM90.514,58.2,97.03,25.209H112.1c6.516.407,9.774,3.665,9.774,9.367,0,9.774-7.738,15.475-14.661,15.067H99.88L98.251,58.2Zm10.995-14.66,2.036-12.217h5.294c2.851,0,4.887,1.222,4.887,3.665-.407,6.923-3.665,8.145-7.33,8.552h-4.887Z" transform="translate(-19.249 -8.92)" fill="#232531" fill-rule="evenodd"/></g><rect width="128" height="128" transform="translate(215 797)" fill="none"/></g></svg>